<?xml version="1.0" encoding="utf-8"?>
<!-- Generator: Adobe Illustrator 16.0.0, SVG Export Plug-In . SVG Version: 6.00 Build 0)  -->
<!DOCTYPE svg PUBLIC "-//W3C//DTD SVG 1.1//EN" "http://www.w3.org/Graphics/SVG/1.1/DTD/svg11.dtd">
<svg version="1.1" id="Layer_1" xmlns="http://www.w3.org/2000/svg" xmlns:xlink="http://www.w3.org/1999/xlink" x="0px" y="0px"
	 width="10px" height="10px" viewBox="0 0 14 14" enable-background="new 0 0 14 14" xml:space="preserve">
<path fill="#FFFFFF" fill-rule="evenodd" clip-rule="evenodd" d="M9.155,7l3.665,3.665c0.239,0.239,0.239,0.625,0,0.862l-1.293,1.294
	c-0.238,0.238-0.624,0.238-0.863,0L7,9.156l-3.665,3.665c-0.238,0.238-0.625,0.238-0.863,0l-1.294-1.294
	c-0.237-0.237-0.237-0.623,0-0.862L4.844,7L1.178,3.335c-0.237-0.238-0.237-0.625,0-0.862l1.294-1.294
	c0.238-0.238,0.625-0.238,0.863,0L7,4.844l3.664-3.665c0.239-0.238,0.625-0.238,0.863,0l1.293,1.294
	c0.239,0.237,0.239,0.624,0,0.862L9.155,7z"/>
</svg>
