<?xml version="1.0" encoding="utf-8"?>
<!-- Generator: Adobe Illustrator 16.0.0, SVG Export Plug-In . SVG Version: 6.00 Build 0)  -->
<!DOCTYPE svg PUBLIC "-//W3C//DTD SVG 1.1//EN" "http://www.w3.org/Graphics/SVG/1.1/DTD/svg11.dtd">
<svg version="1.1" id="Layer_1" xmlns="http://www.w3.org/2000/svg" xmlns:xlink="http://www.w3.org/1999/xlink" x="0px" y="0px"
	 width="10px" height="10px" viewBox="0 0 10 10" enable-background="new 0 0 10 10" xml:space="preserve">
<path fill="#FFFFFF" d="M9.407,6.542C8.698,5.349,7.462,5.236,7.462,5.236H6.42C5.996,5.473,5.515,5.619,4.989,5.619
	S3.981,5.484,3.558,5.236H2.516c0,0-1.236,0.112-1.946,1.306C-0.117,7.736,0.009,8.93,0.009,8.93S1.097,10,5.012,10
	s4.979-1.07,4.979-1.07S10.117,7.736,9.407,6.542z M5,4.595c1.293,0,2.335-1.025,2.335-2.298S6.294,0,5,0
	C3.707,0,2.665,1.036,2.665,2.297C2.665,3.569,3.707,4.595,5,4.595z"/>
</svg>
