<?xml version="1.0" encoding="utf-8"?>
<!-- Generator: Adobe Illustrator 16.0.0, SVG Export Plug-In . SVG Version: 6.00 Build 0)  -->
<!DOCTYPE svg PUBLIC "-//W3C//DTD SVG 1.1//EN" "http://www.w3.org/Graphics/SVG/1.1/DTD/svg11.dtd">
<svg version="1.1" id="Layer_1" xmlns="http://www.w3.org/2000/svg" xmlns:xlink="http://www.w3.org/1999/xlink" x="0px" y="0px"
	 width="14px" height="14px" viewBox="0 0 14 14" enable-background="new 0 0 14 14" xml:space="preserve">
<path d="M11.98,6.999c0-0.962,0.713-1.772,1.703-2.084c-0.308-0.987-0.833-1.875-1.512-2.621c-0.77,0.741-1.855,0.974-2.706,0.483
	C8.611,2.282,8.27,1.216,8.537,0.174C8.042,0.063,7.528,0,7,0C6.507,0,6.026,0.052,5.562,0.149C5.84,1.199,5.501,2.278,4.638,2.776
	C3.767,3.279,2.649,3.023,1.879,2.239C1.175,2.996,0.631,3.904,0.316,4.915c0.991,0.312,1.703,1.122,1.703,2.084
	c0,0.961-0.712,1.772-1.704,2.083c0.318,1.023,0.87,1.942,1.585,2.704c0.769-0.768,1.875-1.015,2.738-0.516
	c0.852,0.49,1.194,1.548,0.935,2.584C6.033,13.948,6.511,14,7,14c0.524,0,1.033-0.062,1.525-0.173
	c-0.246-1.026,0.097-2.071,0.94-2.558c0.844-0.488,1.917-0.265,2.685,0.46c0.69-0.752,1.225-1.649,1.535-2.648
	C12.693,8.771,11.98,7.959,11.98,6.999z M7,9.838C5.433,9.838,4.163,8.566,4.163,7c0-1.567,1.271-2.838,2.837-2.838
	c1.566,0,2.837,1.271,2.837,2.838C9.837,8.566,8.566,9.838,7,9.838z"/>
</svg>
