<?xml version="1.0" encoding="utf-8"?>
<!-- Generator: Adobe Illustrator 16.0.0, SVG Export Plug-In . SVG Version: 6.00 Build 0)  -->
<!DOCTYPE svg PUBLIC "-//W3C//DTD SVG 1.1//EN" "http://www.w3.org/Graphics/SVG/1.1/DTD/svg11.dtd">
<svg version="1.1" id="Layer_1" xmlns="http://www.w3.org/2000/svg" xmlns:xlink="http://www.w3.org/1999/xlink" x="0px" y="0px"
	 width="256px" height="256px" viewBox="0 0 256 256" enable-background="new 0 0 256 256" xml:space="preserve">
<g>
	<path fill="#32363B" d="M111.767,239.189h-0.002c-0.594,0-14.679-0.106-25.58-9.378c-0.948-0.808-1.736-1.341-2.481-1.68l-8-3.634
		v-93.491l11.416-9.762l30.509-56.537c0.845-1.381,1.467-2.874,1.845-4.437c0.378-1.555,0.506-3.163,0.383-4.791l-2.896-38.084
		l2.057-1.715c4.435-3.698,10.056-5.735,15.827-5.735c19.951,0,35.426,26.644,35.426,49.564c0,2.968-0.226,5.959-0.673,8.887
		l-3.577,23.169h55.545c7.072,0,14.032,2.924,19.094,8.021c4.874,4.909,7.535,11.284,7.489,17.947
		c-0.041,5.798-1.985,11.271-5.48,15.704c4.895,4.793,7.766,11.42,7.766,18.428c0,9.188-4.763,17.419-12.315,22.014
		c1.335,3.146,2.025,6.528,2.025,10.012c0,10.529-6.28,19.703-15.585,23.681c0.478,1.968,0.719,3.991,0.719,6.059
		c0,13.663-10.693,24.959-24.347,25.717l-0.284,0.008L111.767,239.189z M86.102,217.801l1.902,0.864
		c1.649,0.749,3.213,1.774,4.92,3.227c7.865,6.689,18.592,6.896,18.856,6.899l88.708-0.034c8.078-0.517,14.389-7.225,14.389-15.326
		c0-2.475-0.58-4.851-1.726-7.057l-3.298-6.346l7.053-1.179c7.438-1.244,12.838-7.619,12.838-15.158
		c0-3.346-1.073-6.541-3.109-9.238l-4.443-5.896l7.051-2.196c6.453-2.014,10.792-7.919,10.792-14.694
		c0-5.525-2.999-10.658-7.824-13.392l-6.873-3.896l6.296-4.771c3.854-2.922,6.083-7.348,6.115-12.145
		c0.028-3.872-1.561-7.618-4.47-10.548c-3.123-3.145-7.393-4.948-11.714-4.948h-67.671l5.424-35.147
		c0.366-2.4,0.554-4.862,0.554-7.308c0-17.631-11.549-39.166-25.027-39.166c-2.494,0-4.939,0.657-7.088,1.881l2.468,32.467
		c0.207,2.721-0.012,5.424-0.646,8.031c-0.618,2.562-1.63,5.017-3.006,7.289L95.35,127.89l-9.248,7.908V217.801z"/>
	<path fill="#758FB5" d="M11.106,119.669c-0.172,0-0.34,0.144-0.34,0.291v120.602c0,0.148,0.168,0.292,0.34,0.292h69.456
		c0.173,0,0.34-0.144,0.34-0.292V119.96c0-0.147-0.167-0.291-0.34-0.291H11.106z"/>
	<path fill="#32363B" d="M75.414,246.054h-59.16c-5.893,0-10.687-4.795-10.687-10.688V123.778c0-5.893,4.794-10.688,10.687-10.688
		h59.16c5.894,0,10.688,4.795,10.688,10.688v111.588C86.102,241.259,81.308,246.054,75.414,246.054 M16.254,123.49
		c-0.146,0-0.288,0.143-0.288,0.288v111.588c0,0.146,0.143,0.288,0.288,0.288h59.16c0.146,0,0.289-0.143,0.289-0.288V123.778
		c0-0.146-0.143-0.288-0.289-0.288H16.254z"/>
	<path fill="#FFFFFF" d="M86.102,217.801l1.902,0.865c1.649,0.748,3.213,1.773,4.92,3.226c7.865,6.69,18.592,6.896,18.855,6.899
		l88.709-0.033c8.078-0.518,14.389-7.226,14.389-15.327c0-2.475-0.58-4.85-1.726-7.056l-3.298-6.346l7.053-1.179
		c7.438-1.244,12.838-7.62,12.838-15.158c0-3.347-1.073-6.541-3.109-9.239l-4.443-5.896l7.051-2.196
		c6.453-2.014,10.792-7.919,10.792-14.694c0-5.525-2.999-10.658-7.824-13.392l-6.873-3.896l6.296-4.771
		c3.854-2.923,6.083-7.349,6.115-12.145c0.028-3.872-1.561-7.618-4.47-10.548c-3.123-3.146-7.393-4.949-11.714-4.949h-67.671
		l5.424-35.147c0.366-2.4,0.554-4.862,0.554-7.308c0-17.63-11.549-39.165-25.027-39.165c-2.494,0-4.939,0.656-7.087,1.88
		l2.467,32.467c0.207,2.721-0.012,5.424-0.646,8.031c-0.618,2.562-1.63,5.018-3.006,7.29L95.35,127.89l-9.248,7.909V217.801z"/>
</g>
</svg>
