<svg width="950" height="200" fill="none" xmlns="http://www.w3.org/2000/svg">
    <path fill="#1F95EB" d="M0 0h950v200H0z" />
    <g>
        <path fill-rule="evenodd" clip-rule="evenodd"
            d="M382.08 58H299v83.08h83.08V58zm-24.244 48.755a8.19 8.19 0 01-3.58.797c-1.136 0-2.19-.196-3.163-.589a8.444 8.444 0 01-2.502-1.663 7.99 7.99 0 01-1.669-2.461 8.213 8.213 0 01-.59-3.12c0-1.132.196-2.171.59-3.119a7.42 7.42 0 011.634-2.495 7.266 7.266 0 012.468-1.664 7.787 7.787 0 013.093-.624 8.15 8.15 0 013.684.867c1.158.554 2.166 1.363 3.024 2.426l3.406-3.362c-1.136-1.386-2.619-2.484-4.449-3.293-1.83-.831-3.719-1.247-5.665-1.247-1.807 0-3.511.323-5.109.97-1.576.647-2.943 1.525-4.101 2.634-1.159 1.11-2.074 2.438-2.746 3.986-.672 1.525-1.008 3.165-1.008 4.921 0 1.757.324 3.397.973 4.922a12.227 12.227 0 002.746 3.951c1.158 1.109 2.525 1.987 4.101 2.634 1.599.647 3.313.971 5.144.971 1.9 0 3.742-.405 5.526-1.213 1.807-.809 3.29-1.895 4.449-3.258l-3.302-3.258c-.857.993-1.842 1.756-2.954 2.287zm-20.527-.901c.509-1.363.764-2.865.764-4.506V87.589h-5.039v13.759c0 1.872-.522 3.374-1.564 4.506-1.02 1.132-2.399 1.698-4.136 1.698-1.738 0-3.14-.566-4.206-1.698-1.042-1.132-1.564-2.634-1.564-4.506V87.589h-5.039v13.759c0 1.664.255 3.166.764 4.506.51 1.34 1.228 2.484 2.155 3.431.927.925 2.051 1.641 3.371 2.149 1.344.509 2.839.763 4.484.763 1.622 0 3.093-.254 4.414-.763 1.344-.508 2.479-1.224 3.406-2.149.95-.947 1.68-2.091 2.19-3.431z"
            fill="#fff" />
        <path
            d="M422.868 121.298v-3.01a15.241 15.241 0 01-4.515 2.633 15.809 15.809 0 01-5.267.878c-2.257 0-4.368-.418-6.333-1.254-1.964-.878-3.678-2.048-5.141-3.511-1.422-1.463-2.55-3.198-3.386-5.204-.836-2.049-1.254-4.222-1.254-6.521 0-2.299.418-4.452 1.254-6.459.836-2.006 1.964-3.74 3.386-5.204 1.463-1.463 3.197-2.612 5.204-3.448 2.006-.878 4.138-1.317 6.396-1.317 1.755 0 3.448.272 5.078.815a16.5 16.5 0 014.515 2.32v-14.61l6.27-1.38v45.272h-6.207zm-19.751-16.052c0 3.135 1.045 5.769 3.135 7.9 2.09 2.132 4.66 3.198 7.712 3.198 1.797 0 3.449-.334 4.953-1.003 1.547-.669 2.843-1.609 3.888-2.822V98.035c-1.045-1.17-2.341-2.09-3.888-2.759-1.546-.668-3.197-1.003-4.953-1.003-3.052 0-5.622 1.045-7.712 3.135s-3.135 4.703-3.135 7.838zM439.635 84.24c-1.045 0-1.943-.375-2.696-1.128-.752-.794-1.128-1.714-1.128-2.759s.376-1.944 1.128-2.696c.753-.794 1.651-1.191 2.696-1.191 1.045 0 1.944.397 2.697 1.191.794.752 1.191 1.651 1.191 2.696 0 1.045-.397 1.965-1.191 2.76-.753.752-1.652 1.128-2.697 1.128zm3.136 5.142v31.916H436.5V89.382h6.271zM450.155 121.298V89.382h6.27v4.076c.962-1.547 2.195-2.717 3.7-3.511 1.505-.836 3.198-1.254 5.079-1.254.668 0 1.254.041 1.755.125.502.084.983.209 1.442.376v5.643a12.937 12.937 0 00-1.818-.501 9.57 9.57 0 00-1.881-.188c-1.839 0-3.49.501-4.953 1.505-1.422.961-2.529 2.403-3.324 4.326v21.319h-6.27zM499.116 117.661c-1.84 1.421-3.763 2.487-5.769 3.198-2.006.669-4.201 1.003-6.584 1.003-2.341 0-4.535-.418-6.583-1.254-2.049-.878-3.825-2.048-5.33-3.511s-2.696-3.198-3.574-5.205c-.836-2.048-1.254-4.242-1.254-6.583 0-2.299.418-4.452 1.254-6.459.836-2.006 1.965-3.74 3.386-5.204 1.421-1.463 3.114-2.612 5.079-3.448 1.964-.878 4.054-1.317 6.27-1.317 2.174 0 4.201.439 6.082 1.317 1.923.836 3.553 2.006 4.891 3.51 1.379 1.464 2.466 3.22 3.26 5.268.794 2.048 1.192 4.243 1.192 6.583v1.819h-25.207c.418 2.633 1.631 4.828 3.637 6.583 2.007 1.714 4.389 2.571 7.148 2.571 1.547 0 3.031-.251 4.452-.752 1.421-.502 2.633-1.191 3.637-2.069l4.013 3.95zm-13.231-23.513c-2.382 0-4.472.794-6.27 2.382-1.755 1.589-2.863 3.637-3.323 6.145h18.936c-.46-2.424-1.568-4.452-3.323-6.082-1.714-1.63-3.72-2.445-6.02-2.445zM522.766 116.344a11.06 11.06 0 004.515-.94c1.421-.669 2.78-1.652 4.076-2.947l3.762 4.075a18.887 18.887 0 01-5.769 3.95 17.36 17.36 0 01-6.834 1.38c-2.299 0-4.452-.418-6.459-1.254-2.006-.878-3.741-2.048-5.204-3.511-1.463-1.463-2.633-3.198-3.511-5.205-.836-2.048-1.254-4.242-1.254-6.583 0-2.299.418-4.452 1.254-6.459.878-2.048 2.048-3.804 3.511-5.267 1.463-1.504 3.198-2.675 5.204-3.51 2.007-.879 4.16-1.318 6.459-1.318 2.382 0 4.702.481 6.959 1.443 2.258.92 4.222 2.215 5.894 3.887l-3.95 4.264c-1.212-1.296-2.571-2.278-4.075-2.947a10.891 10.891 0 00-4.703-1.066c-2.884 0-5.33 1.066-7.336 3.198-2.007 2.131-3.01 4.723-3.01 7.775 0 3.135 1.003 5.768 3.01 7.9 2.048 2.09 4.535 3.135 7.461 3.135zM544.979 113.397V94.649h-6.772v-5.267h6.772v-8.15l6.207-1.506v9.656h9.405v5.267h-9.405v17.306c0 1.63.355 2.78 1.066 3.449.752.668 1.965 1.003 3.637 1.003.877 0 1.651-.042 2.32-.126.71-.125 1.463-.334 2.257-.627v5.267c-.836.293-1.818.523-2.947.69-1.087.167-2.09.251-3.01.251-3.093 0-5.455-.711-7.085-2.132-1.63-1.463-2.445-3.574-2.445-6.333zM602.518 102.55c0 2.968-.439 5.664-1.316 8.088-.878 2.383-2.132 4.41-3.763 6.082-1.588 1.672-3.553 2.968-5.894 3.888-2.299.92-4.869 1.379-7.712 1.379-5.685 0-10.22-1.755-13.606-5.267-3.344-3.511-5.016-8.234-5.016-14.17V77.406h6.583v25.144c0 4.054 1.087 7.294 3.261 9.719 2.215 2.424 5.141 3.636 8.778 3.636 3.679 0 6.605-1.212 8.778-3.636 2.216-2.425 3.324-5.665 3.324-9.719V77.406h6.583v25.144zM631.92 115.905a17.83 17.83 0 007.211-1.505c2.299-1.045 4.243-2.508 5.831-4.389l4.327 4.389c-2.132 2.341-4.766 4.201-7.901 5.581a24.075 24.075 0 01-9.656 2.006c-3.219 0-6.249-.585-9.092-1.755-2.8-1.171-5.225-2.759-7.273-4.766-2.048-2.048-3.679-4.451-4.891-7.21-1.17-2.801-1.756-5.769-1.756-8.904 0-3.177.586-6.145 1.756-8.904 1.212-2.759 2.843-5.141 4.891-7.148 2.048-2.048 4.473-3.657 7.273-4.828 2.843-1.17 5.873-1.755 9.092-1.755 3.428 0 6.709.69 9.844 2.069 3.177 1.337 5.79 3.177 7.838 5.517l-4.389 4.515a17.14 17.14 0 00-6.02-4.452 17.655 17.655 0 00-7.273-1.567c-2.299 0-4.452.418-6.458 1.254-2.007.836-3.742 2.006-5.205 3.511-1.421 1.463-2.549 3.219-3.385 5.267-.837 2.006-1.255 4.18-1.255 6.521s.418 4.535 1.255 6.584c.836 2.006 1.985 3.741 3.448 5.204 1.463 1.463 3.198 2.633 5.204 3.511 2.049.836 4.243 1.254 6.584 1.254z"
            fill="#fff" />
        <animate attributeName="opacity" from="0" to="1" dur="0.3s" fill="freeze"></animate>
        <animateMotion dur="0.3s" values="0,-100;0,0" fill="freeze"></animateMotion>
    </g>
</svg>